<svg xmlns="http://www.w3.org/2000/svg" viewBox="0 0 1024 1024"><g fill="none" fill-rule="evenodd"><rect width="1024" height="1024" fill="#6A43D3"/><path fill="#FFF" fill-rule="nonzero" d="M203.884438,614 C198.254237,614 193.979456,609.170375 191.060093,599.511128 L127.40755,425.488872 C126.469183,423.100025 126,420.711179 126,418.322333 C126,413.440778 127.980996,411 131.942989,411 L169.477658,411 C174.690806,411 178.548536,414.635201 181.050848,421.905602 L227.343606,547.008442 L273.47997,421.905602 C276.086544,414.635201 279.996405,411 285.209554,411 L323.057011,411 C327.019004,411 329,413.440778 329,418.322333 C329,421.126631 328.635081,423.515477 327.905239,425.488872 L260.49923,599.511128 C257.579867,609.170375 253.305085,614 247.674885,614 L203.884438,614 Z M356,424.554106 C356,415.518035 358.655106,411 363.965318,411 L400.728324,411 C406.242774,411 409,414.635201 409,421.905602 L409,603.094397 C409,610.364798 406.242774,614 400.728324,614 L363.965318,614 C358.655106,614 356,609.481964 356,600.445893 L356,424.554106 Z M531.831309,463.310873 C514.924426,463.310873 503.131354,471.054619 496.452092,486.542113 C495.408457,490.518632 494.469186,495.384635 493.634278,501.140122 L493.634278,600.657733 C493.634278,609.552578 490.503374,614 484.241566,614 L447.296897,614 C444.165993,614 441.556906,612.01174 439.469637,608.035221 C439.156546,607.093415 439,606.046963 439,604.895865 L439,500.826187 C439,469.955845 448.392714,446.933895 467.178139,431.760337 C485.963563,416.586779 506.470985,409 528.700405,409 L541.380567,409 C550.46019,409 555,411.720776 555,417.162328 L555,454.834609 C555,460.485452 551.347279,463.310873 544.041836,463.310873 L531.831309,463.310873 Z M640,519.600624 C640,543.282371 649.711968,557.491421 669.135903,562.227769 C670.780256,562.74259 673.863422,563 678.385396,563 C695.034483,563 706.647735,555.380656 713.225153,540.141966 C714.252874,536.229329 715.177823,531.441499 716,525.778472 L716,501.375975 C715.177823,495.609985 714.252874,490.822153 713.225153,487.012481 C706.647735,471.670827 695.034483,464 678.385396,464 C673.863422,464 670.780256,464.25741 669.135903,464.772231 C649.711968,469.611545 640,483.872075 640,507.553823 L640,519.600624 Z M716.964735,602.541347 C705.40806,609.761868 693.5911,613.372128 681.513854,613.372128 L681.513854,613.058192 C680.160369,613.581418 679.275399,613.843031 678.858942,613.843031 C668.447523,613.319805 659.54576,612.116386 652.153653,610.232771 C643.303947,607.930577 634.766583,604.267994 626.541562,599.245023 C620.607053,596.001021 613.058775,589.042113 603.896725,578.368299 C598.482788,570.624553 594.422334,563.247065 591.715366,556.235834 C587.238456,545.248086 585,530.911689 585,513.226646 L585,509.773354 C585,492.08831 587.238456,477.699591 591.715366,466.607197 C594.422334,459.700612 598.482788,452.375447 603.896725,444.6317 C613.058775,433.853241 620.607053,426.842011 626.541562,423.598009 C634.766583,418.575038 643.303947,414.912455 652.153653,412.61026 C659.54576,410.726646 668.447523,409.523226 678.858942,409 C679.275399,409 680.160369,409.261613 681.513854,409.784839 L681.513854,409.470903 C699.525609,409.470903 716.912679,415.121746 733.675063,426.42343 C758.141898,445.154926 770.583544,469.694232 771,500.041347 L771,600.343797 C771,609.447932 768.293031,614 762.879093,614 L725.397984,614 C719.775819,614 716.964735,610.180448 716.964735,602.541347 Z M837.059524,348 C842.738096,348 845.577382,351.619048 845.577382,358.857143 L845.577382,531.95102 C845.892858,540.016326 847.680556,546.220408 850.940477,550.563266 C854.200397,554.906122 858.879961,557.542857 864.979167,558.473469 C871.078374,559.404082 879.648811,560.127891 890.690477,560.644898 C894.896826,561.472109 897,565.142857 897,571.657143 L897,603.453061 C897,610.484353 893.056548,614 885.169644,614 C862.560516,614 846.182045,611.69932 836.034227,607.097959 C825.886409,602.496599 817.000496,595.336054 809.376488,585.616326 C801.752481,575.896599 796.836309,566.978231 794.627977,558.861224 C792.419643,550.744218 791.210319,543.842176 791,538.155102 L791,361.493878 C791,352.497959 793.734127,348 799.202381,348 L837.059524,348 Z"/></g></svg>